<?xml version="1.0" encoding="utf-8"?>
<!-- Generator: Adobe Illustrator 24.0.1, SVG Export Plug-In . SVG Version: 6.00 Build 0)  -->
<svg version="1.1" id="Layer_1" xmlns="http://www.w3.org/2000/svg" xmlns:xlink="http://www.w3.org/1999/xlink" x="0px" y="0px"
	 viewBox="0 0 68 50" style="enable-background:new 0 0 68 50;" xml:space="preserve">
<style type="text/css">
	.st0{fill:#FFFFFF;}
</style>
<g>
	<path class="st0" d="M55.14,36.25c-0.76,0-1.38,0.62-1.38,1.38c0,3.92-3.19,7.1-7.1,7.1h-29c-7.11,0-12.9-5.79-12.9-12.9
		c0-3.91,1.75-7.57,4.79-10.03c0.59-0.48,0.68-1.35,0.2-1.94s-1.35-0.68-1.94-0.2c-3.7,2.99-5.82,7.43-5.82,12.18
		c0,8.63,7.02,15.65,15.65,15.65h29.11c0.04,0,0.08,0,0.11-0.01c5.33-0.12,9.64-4.49,9.64-9.85C56.52,36.87,55.9,36.25,55.14,36.25z
		"/>
	<path class="st0" d="M63.79,18.74c-1.4-1.72-3.36-2.93-5.52-3.41c-0.74-0.16-1.48,0.31-1.64,1.05c-0.16,0.74,0.31,1.48,1.05,1.64
		c3.22,0.71,5.56,3.63,5.56,6.93c0,3.92-3.19,7.1-7.1,7.1h-29c-7.11,0-12.9-5.79-12.9-12.9c0-7.11,5.79-12.9,12.9-12.9
		c5.45,0,10.33,3.45,12.16,8.58c0.26,0.72,1.04,1.09,1.76,0.84s1.09-1.04,0.84-1.76C39.68,7.7,33.75,3.51,27.14,3.51
		c-8.63,0-15.65,7.02-15.65,15.65c0,8.63,7.02,15.65,15.65,15.65h29.11c0.04,0,0.08,0,0.11-0.01c5.33-0.12,9.64-4.49,9.64-9.85
		C65.99,22.7,65.21,20.49,63.79,18.74z"/>
	<path class="st0" d="M40.52,7.21c1.21-0.63,2.52-0.94,3.9-0.94c4.7,0,8.52,3.82,8.52,8.51c0,2.3-0.9,4.46-2.55,6.07
		c-0.54,0.53-0.55,1.41-0.02,1.95c0.27,0.27,0.63,0.41,0.98,0.41c0.35,0,0.7-0.13,0.97-0.4c2.17-2.14,3.37-4.99,3.37-8.04
		c0-6.22-5.06-11.27-11.27-11.27c-1.79,0-3.58,0.43-5.17,1.25c-0.68,0.35-0.94,1.18-0.59,1.86C39.01,7.29,39.84,7.56,40.52,7.21z"/>
</g>
</svg>
