<?xml version="1.0" encoding="utf-8"?>
<!-- Generator: Adobe Illustrator 24.0.1, SVG Export Plug-In . SVG Version: 6.00 Build 0)  -->
<svg version="1.1" id="Layer_1" xmlns="http://www.w3.org/2000/svg" xmlns:xlink="http://www.w3.org/1999/xlink" x="0px" y="0px"
	 viewBox="0 0 68 70" style="enable-background:new 0 0 68 70;" xml:space="preserve">
<style type="text/css">
	.st0{fill:#FFFFFF;}
</style>
<g>
	<path class="st0" d="M33.85,15.53c-10.83,0-19.64,8.81-19.64,19.64s8.81,19.64,19.64,19.64S53.49,46,53.49,35.17
		C53.49,24.34,44.68,15.53,33.85,15.53z M33.85,52.05c-9.31,0-16.88-7.57-16.88-16.88c0-9.31,7.57-16.88,16.88-16.88
		s16.88,7.57,16.88,16.88C50.73,44.48,43.16,52.05,33.85,52.05z"/>
	<path class="st0" d="M33.85,13.21c0.38,0,0.69-0.31,0.69-0.69V3.14c0-0.38-0.31-0.69-0.69-0.69c-0.38,0-0.69,0.31-0.69,0.69v9.38
		C33.16,12.9,33.47,13.21,33.85,13.21z"/>
	<path class="st0" d="M49.87,19.84c0.18,0,0.35-0.07,0.49-0.2l6.63-6.63c0.27-0.27,0.27-0.71,0-0.97c-0.27-0.27-0.71-0.27-0.98,0
		l-6.63,6.63c-0.27,0.27-0.27,0.71,0,0.98C49.51,19.78,49.69,19.84,49.87,19.84z"/>
	<path class="st0" d="M65.88,34.48H56.5c-0.38,0-0.69,0.31-0.69,0.69c0,0.38,0.31,0.69,0.69,0.69h9.38c0.38,0,0.69-0.31,0.69-0.69
		C66.57,34.79,66.26,34.48,65.88,34.48z"/>
	<path class="st0" d="M50.35,50.7c-0.27-0.27-0.71-0.27-0.97,0c-0.27,0.27-0.27,0.71,0,0.97l6.63,6.63c0.14,0.14,0.31,0.2,0.49,0.2
		c0.18,0,0.35-0.07,0.49-0.2c0.27-0.27,0.27-0.71,0-0.97L50.35,50.7z"/>
	<path class="st0" d="M33.85,57.13c-0.38,0-0.69,0.31-0.69,0.69v9.38c0,0.38,0.31,0.69,0.69,0.69c0.38,0,0.69-0.31,0.69-0.69v-9.38
		C34.54,57.44,34.23,57.13,33.85,57.13z"/>
	<path class="st0" d="M17.35,50.7l-6.63,6.63c-0.27,0.27-0.27,0.71,0,0.97c0.13,0.14,0.31,0.2,0.49,0.2c0.18,0,0.35-0.07,0.49-0.2
		l6.63-6.63c0.27-0.27,0.27-0.71,0-0.97C18.05,50.43,17.62,50.43,17.35,50.7z"/>
	<path class="st0" d="M11.89,35.17c0-0.38-0.31-0.69-0.69-0.69H1.82c-0.38,0-0.69,0.31-0.69,0.69c0,0.38,0.31,0.69,0.69,0.69h9.38
		C11.58,35.86,11.89,35.55,11.89,35.17z"/>
	<path class="st0" d="M17.35,19.64c0.13,0.13,0.31,0.2,0.49,0.2c0.18,0,0.35-0.07,0.49-0.2c0.27-0.27,0.27-0.71,0-0.98l-6.63-6.63
		c-0.27-0.27-0.71-0.27-0.97,0c-0.27,0.27-0.27,0.71,0,0.97L17.35,19.64z"/>
</g>
</svg>
