<?xml version="1.0" encoding="utf-8"?>
<!-- Generator: Adobe Illustrator 24.0.1, SVG Export Plug-In . SVG Version: 6.00 Build 0)  -->
<svg version="1.1" id="Layer_1" xmlns="http://www.w3.org/2000/svg" xmlns:xlink="http://www.w3.org/1999/xlink" x="0px" y="0px"
	 viewBox="0 0 68 70" style="enable-background:new 0 0 68 70;" xml:space="preserve">
<style type="text/css">
	.st0{fill:#FFFFFF;}
</style>
<g>
	<path class="st0" d="M67.5,31.4c0-2.7-1-5.4-2.7-7.5c-1.7-2.1-4.1-3.6-6.7-4.1c-0.7-0.2-1.5,0.3-1.6,1c-0.2,0.7,0.3,1.5,1,1.6
		c4.2,0.9,7.2,4.7,7.2,9c0,5.1-4.1,9.2-9.2,9.2H19.4C10.4,40.6,3,33.3,3,24.2S10.4,7.8,19.4,7.8c6.9,0,13.2,4.4,15.5,10.9
		c0.3,0.7,1,1.1,1.8,0.8s1.1-1,0.8-1.8C34.8,10.1,27.5,5,19.4,5C8.8,5,0.2,13.6,0.2,24.2s8.6,19.2,19.2,19.2h36.3c0,0,0,0,0,0
		C62.3,43.3,67.5,38,67.5,31.4z"/>
	<path class="st0" d="M35.9,9c1.6-0.8,3.3-1.2,5-1.2c6,0,11,4.9,11,11c0,3-1.2,5.7-3.3,7.8c-0.5,0.5-0.6,1.4,0,2
		c0.3,0.3,0.6,0.4,1,0.4c0.3,0,0.7-0.1,1-0.4c2.6-2.6,4.1-6.1,4.1-9.8C54.7,11.2,48.5,5,41,5c-2.2,0-4.4,0.5-6.3,1.5
		c-0.7,0.4-0.9,1.2-0.6,1.9C34.4,9.1,35.3,9.3,35.9,9z"/>
	<path class="st0" d="M31.4,52.1l-3.2-5.3c-0.1-0.2-0.3-0.3-0.6-0.3h0c-0.2,0-0.5,0.1-0.6,0.3l-3.2,5.3c-0.4,0.7-0.6,1.4-0.6,2.2
		c0,2.4,2,4.4,4.4,4.4c2.4,0,4.4-2,4.4-4.4C32,53.5,31.8,52.8,31.4,52.1z M27.6,57.3c-1.7,0-3-1.3-3-3c0-0.6,0.1-1.1,0.4-1.5
		l2.6-4.3l2.6,4.3c0,0,0,0,0,0c0.3,0.5,0.4,0.9,0.4,1.5C30.6,56,29.3,57.3,27.6,57.3z"/>
	<path class="st0" d="M45.4,46.8c-0.1-0.2-0.3-0.3-0.6-0.3l0,0c-0.2,0-0.5,0.1-0.6,0.3L41,52.1c-0.4,0.7-0.6,1.4-0.6,2.2
		c0,2.4,2,4.4,4.4,4.4s4.4-2,4.4-4.4c0-0.8-0.2-1.6-0.6-2.2L45.4,46.8z M44.8,57.3c-1.7,0-3-1.3-3-3c0-0.6,0.1-1.1,0.4-1.5l2.6-4.3
		l2.6,4.3c0,0,0,0,0,0c0.3,0.5,0.4,0.9,0.4,1.5C47.8,56,46.4,57.3,44.8,57.3z"/>
	<path class="st0" d="M36.8,55.7c-0.1-0.2-0.3-0.3-0.6-0.3c-0.2,0-0.5,0.1-0.6,0.3L32.4,61c-0.4,0.7-0.6,1.4-0.6,2.2
		c0,2.4,2,4.4,4.4,4.4s4.4-2,4.4-4.4c0-0.8-0.2-1.6-0.6-2.2L36.8,55.7z M36.2,66.2c-1.7,0-3-1.3-3-3c0-0.6,0.1-1.1,0.4-1.5l2.6-4.3
		l2.6,4.3c0,0,0,0,0,0c0.3,0.5,0.4,0.9,0.4,1.5C39.2,64.9,37.8,66.2,36.2,66.2z"/>
</g>
</svg>
