<?xml version="1.0" encoding="utf-8"?>
<!-- Generator: Adobe Illustrator 24.0.1, SVG Export Plug-In . SVG Version: 6.00 Build 0)  -->
<svg version="1.1" id="Layer_1" xmlns="http://www.w3.org/2000/svg" xmlns:xlink="http://www.w3.org/1999/xlink" x="0px" y="0px"
	 viewBox="0 0 68 70" style="enable-background:new 0 0 68 70;" xml:space="preserve">
<style type="text/css">
	.st0{fill:#FFFFFF;}
</style>
<g>
	<path class="st0" d="M67.51,55.6c0-2.74-0.95-5.42-2.68-7.54c-1.7-2.09-4.08-3.56-6.7-4.14c-0.74-0.16-1.48,0.31-1.64,1.05
		c-0.16,0.74,0.31,1.48,1.05,1.64c4.18,0.92,7.21,4.7,7.21,8.98c0,5.07-4.13,9.2-9.2,9.2H19.38c-9.06,0-16.43-7.37-16.43-16.43
		s7.37-16.43,16.43-16.43c6.94,0,13.16,4.39,15.48,10.93c0.25,0.72,1.04,1.09,1.76,0.84s1.09-1.04,0.84-1.76
		c-2.71-7.64-9.98-12.76-18.08-12.76C8.8,29.19,0.2,37.79,0.2,48.37S8.8,67.56,19.38,67.56h36.31c0.02,0,0.03,0,0.05,0
		C62.24,67.46,67.51,62.13,67.51,55.6z"/>
	<path class="st0" d="M48.6,52.68c0.27,0.27,0.63,0.41,0.98,0.41c0.35,0,0.7-0.13,0.97-0.4c2.65-2.6,4.11-6.08,4.11-9.79
		c0-7.56-6.15-13.72-13.72-13.72c-2.18,0-4.36,0.52-6.29,1.52c-0.68,0.35-0.94,1.18-0.59,1.86c0.35,0.68,1.18,0.94,1.86,0.59
		c1.56-0.81,3.25-1.21,5.02-1.21c6.04,0,10.96,4.92,10.96,10.96c0,2.96-1.17,5.74-3.28,7.82C48.07,51.26,48.06,52.13,48.6,52.68z"/>
	<path class="st0" d="M20.32,27.08c0.76,0,1.38-0.62,1.38-1.38c0-5.07,4.12-9.19,9.19-9.19s9.19,4.12,9.19,9.19
		c0,0.76,0.62,1.38,1.38,1.38c0.76,0,1.38-0.62,1.38-1.38c0-6.59-5.36-11.95-11.95-11.95S18.94,19.11,18.94,25.7
		C18.94,26.46,19.56,27.08,20.32,27.08z"/>
	<path class="st0" d="M30.89,11.44c0.38,0,0.69-0.31,0.69-0.69V3.47c0-0.38-0.31-0.69-0.69-0.69S30.2,3.09,30.2,3.47v7.28
		C30.2,11.13,30.51,11.44,30.89,11.44z"/>
	<path class="st0" d="M42.38,16.28c0.18,0,0.35-0.07,0.49-0.2l5.14-5.15c0.27-0.27,0.27-0.71,0-0.98c-0.27-0.27-0.71-0.27-0.97,0
		l-5.15,5.15c-0.27,0.27-0.27,0.71,0,0.98C42.03,16.22,42.2,16.28,42.38,16.28z"/>
	<path class="st0" d="M44.88,25.56c0,0.38,0.31,0.69,0.69,0.69h7.28c0.38,0,0.69-0.31,0.69-0.69s-0.31-0.69-0.69-0.69h-7.28
		C45.19,24.87,44.88,25.18,44.88,25.56z"/>
	<path class="st0" d="M8.8,26.25h7.28c0.38,0,0.69-0.31,0.69-0.69s-0.31-0.69-0.69-0.69H8.8c-0.38,0-0.69,0.31-0.69,0.69
		S8.42,26.25,8.8,26.25z"/>
	<path class="st0" d="M18.91,16.08c0.13,0.14,0.31,0.2,0.49,0.2c0.18,0,0.35-0.07,0.49-0.2c0.27-0.27,0.27-0.71,0-0.98l-5.15-5.15
		c-0.27-0.27-0.71-0.27-0.97,0c-0.27,0.27-0.27,0.71,0,0.98L18.91,16.08z"/>
</g>
</svg>
