<?xml version="1.0" encoding="utf-8"?>
<!-- Generator: Adobe Illustrator 24.0.1, SVG Export Plug-In . SVG Version: 6.00 Build 0)  -->
<svg version="1.1" id="Layer_1" xmlns="http://www.w3.org/2000/svg" xmlns:xlink="http://www.w3.org/1999/xlink" x="0px" y="0px"
	 viewBox="0 0 68 70" style="enable-background:new 0 0 68 70;" xml:space="preserve">
<style type="text/css">
	.st0{fill:#FFFFFF;}
</style>
<g>
	<path class="st0" d="M67.51,53.71c0-2.74-0.95-5.42-2.68-7.54c-1.7-2.09-4.08-3.56-6.7-4.14c-0.74-0.16-1.48,0.31-1.64,1.05
		s0.31,1.48,1.05,1.64c4.18,0.92,7.21,4.7,7.21,8.98c0,5.07-4.13,9.2-9.2,9.2H19.38c-9.06,0-16.43-7.37-16.43-16.43
		s7.37-16.43,16.43-16.43c6.94,0,13.16,4.39,15.48,10.93c0.26,0.72,1.04,1.09,1.76,0.84s1.09-1.04,0.84-1.76
		c-2.71-7.64-9.98-12.76-18.08-12.76C8.8,27.3,0.2,35.9,0.2,46.48S8.8,65.67,19.38,65.67h36.31c0.02,0,0.03,0,0.05,0
		C62.24,65.57,67.51,60.24,67.51,53.71z"/>
	<path class="st0" d="M48.6,50.79c0.27,0.27,0.63,0.41,0.98,0.41c0.35,0,0.7-0.13,0.97-0.4c2.65-2.6,4.1-6.08,4.1-9.79
		c0-7.56-6.15-13.72-13.72-13.72c-2.18,0-4.36,0.52-6.29,1.52c-0.68,0.35-0.94,1.18-0.59,1.86s1.18,0.94,1.86,0.59
		c1.56-0.81,3.25-1.21,5.02-1.21c6.04,0,10.96,4.92,10.96,10.96c0,2.96-1.16,5.74-3.28,7.82C48.07,49.37,48.06,50.24,48.6,50.79z"/>
	<path class="st0" d="M32.48,25.76c0.74-0.19,1.19-0.93,1-1.67c-0.21-0.83-0.31-1.69-0.31-2.55c0-3.52,1.76-6.74,4.56-8.64
		c-0.04,0.44-0.07,0.89-0.07,1.34c0,7.27,5.88,13.18,13.1,13.18c0.45,0,0.89-0.02,1.34-0.07c-0.35,0.63-0.17,1.43,0.45,1.83
		c0.23,0.15,0.49,0.23,0.75,0.23c0.45,0,0.89-0.22,1.15-0.62c0.6-0.92,1.08-1.91,1.44-2.94c0.17-0.5,0.04-1.05-0.33-1.42
		s-0.93-0.5-1.43-0.33c-1.08,0.38-2.22,0.57-3.37,0.57c-5.7,0-10.34-4.67-10.34-10.42c0-1.17,0.19-2.31,0.56-3.4
		c0.17-0.5,0.04-1.05-0.33-1.42c-0.37-0.37-0.93-0.5-1.43-0.33c-5.27,1.83-8.82,6.84-8.82,12.46c0,1.09,0.13,2.17,0.4,3.22
		C30.99,25.49,31.74,25.94,32.48,25.76z"/>
	<path class="st0" d="M47.81,7.65l1.34,0.44l-0.83,1.14c-0.22,0.31-0.15,0.74,0.15,0.96c0.12,0.09,0.26,0.13,0.4,0.13
		c0.21,0,0.42-0.1,0.56-0.28l0.83-1.14l0.83,1.14c0.13,0.19,0.35,0.28,0.56,0.28c0.14,0,0.28-0.04,0.4-0.13
		c0.31-0.22,0.38-0.65,0.15-0.96l-0.83-1.14l1.34-0.44c0.36-0.12,0.56-0.51,0.44-0.87c-0.12-0.36-0.51-0.56-0.87-0.44l-1.34,0.44
		V5.36c0-0.38-0.31-0.69-0.69-0.69s-0.69,0.31-0.69,0.69v1.41l-1.34-0.44c-0.36-0.12-0.75,0.08-0.87,0.44S47.44,7.53,47.81,7.65z"/>
	<path class="st0" d="M55.49,14.57L56.83,15L56,16.14c-0.22,0.31-0.16,0.74,0.15,0.96c0.12,0.09,0.26,0.13,0.4,0.13
		c0.21,0,0.42-0.1,0.56-0.28l0.83-1.14l0.83,1.14c0.13,0.19,0.35,0.28,0.56,0.28c0.14,0,0.28-0.04,0.4-0.13
		c0.31-0.22,0.38-0.65,0.15-0.96L59.06,15l1.34-0.44c0.36-0.12,0.56-0.51,0.44-0.87s-0.51-0.56-0.87-0.44l-1.34,0.43v-1.41
		c0-0.38-0.31-0.69-0.69-0.69s-0.69,0.31-0.69,0.69v1.41l-1.34-0.43c-0.36-0.12-0.75,0.08-0.87,0.44S55.13,14.45,55.49,14.57z"/>
	<path class="st0" d="M47.12,16.36l1.34,0.43l-0.83,1.14c-0.22,0.31-0.16,0.74,0.15,0.96c0.12,0.09,0.26,0.13,0.4,0.13
		c0.21,0,0.42-0.1,0.56-0.28l0.83-1.14l0.83,1.14c0.13,0.19,0.35,0.28,0.56,0.28c0.14,0,0.28-0.04,0.4-0.13
		c0.31-0.22,0.38-0.65,0.15-0.96l-0.83-1.14l1.34-0.43c0.36-0.12,0.56-0.51,0.44-0.87s-0.51-0.56-0.87-0.44l-1.34,0.43v-1.41
		c0-0.38-0.31-0.69-0.69-0.69s-0.69,0.31-0.69,0.69v1.41l-1.34-0.43c-0.36-0.12-0.75,0.08-0.87,0.44S46.76,16.24,47.12,16.36z"/>
</g>
</svg>
