<?xml version="1.0" encoding="utf-8"?>
<!-- Generator: Adobe Illustrator 24.0.1, SVG Export Plug-In . SVG Version: 6.00 Build 0)  -->
<svg version="1.1" id="Layer_1" xmlns="http://www.w3.org/2000/svg" xmlns:xlink="http://www.w3.org/1999/xlink" x="0px" y="0px"
	 viewBox="0 0 80 40" style="enable-background:new 0 0 80 40;" xml:space="preserve">
<style type="text/css">
	.st0{fill:#FFFFFF;}
</style>
<g>
	<path class="st0" d="M64.3,12.5C57.7,5.9,48.9,2.3,39.5,2.3c-9.4,0-18.1,3.6-24.8,10.3C8.1,19.1,4.5,27.9,4.5,37.3
		c0,0.8,0.6,1.4,1.4,1.4s1.4-0.6,1.4-1.4C7.3,19.5,21.7,5,39.5,5s32.3,14.5,32.3,32.3c0,0.8,0.6,1.4,1.4,1.4s1.4-0.6,1.4-1.4
		C74.5,27.9,70.9,19.1,64.3,12.5z"/>
	<path class="st0" d="M39.5,13.4c-13.2,0-23.9,10.7-23.9,23.9c0,0.8,0.6,1.4,1.4,1.4s1.4-0.6,1.4-1.4c0-11.6,9.5-21.1,21.1-21.1
		s21.1,9.5,21.1,21.1c0,0.8,0.6,1.4,1.4,1.4s1.4-0.6,1.4-1.4C63.4,24.1,52.7,13.4,39.5,13.4z"/>
	<path class="st0" d="M39.5,24.7c-7,0-12.6,5.7-12.6,12.6c0,0.8,0.6,1.4,1.4,1.4s1.4-0.6,1.4-1.4c0-5.4,4.4-9.9,9.9-9.9
		s9.9,4.4,9.9,9.9c0,0.8,0.6,1.4,1.4,1.4s1.4-0.6,1.4-1.4C52.1,30.3,46.5,24.7,39.5,24.7z"/>
</g>
</svg>
