<?xml version="1.0" encoding="utf-8"?>
<!-- Generator: Adobe Illustrator 24.0.1, SVG Export Plug-In . SVG Version: 6.00 Build 0)  -->
<svg version="1.1" id="Layer_1" xmlns="http://www.w3.org/2000/svg" xmlns:xlink="http://www.w3.org/1999/xlink" x="0px" y="0px"
	 viewBox="0 0 68 70" style="enable-background:new 0 0 68 70;" xml:space="preserve">
<style type="text/css">
	.st0{fill:#FFFFFF;}
</style>
<path class="st0" d="M50.8,33.6l-16-26.9C34.6,6.2,34.2,6,33.7,6h0c-0.5,0-0.9,0.3-1.2,0.7L16.4,33.6c-1.9,3-2.8,6.3-2.8,10.1
	c0,11,9,20,20,20c11,0,20-9,20-20C53.6,39.9,52.7,36.6,50.8,33.6z M33.6,60.9c-9.5,0-17.2-7.7-17.2-17.2c0-3.3,0.8-6.1,2.4-8.7
	c0,0,0,0,0,0l14.9-25L48.5,35c0,0,0,0,0,0c1.6,2.6,2.4,5.4,2.4,8.7C50.8,53.2,43.1,60.9,33.6,60.9z"/>
</svg>
