<?xml version="1.0" encoding="utf-8"?>
<!-- Generator: Adobe Illustrator 24.0.1, SVG Export Plug-In . SVG Version: 6.00 Build 0)  -->
<svg version="1.1" id="Layer_1" xmlns="http://www.w3.org/2000/svg" xmlns:xlink="http://www.w3.org/1999/xlink" x="0px" y="0px"
	 viewBox="0 0 68 70" style="enable-background:new 0 0 68 70;" xml:space="preserve">
<style type="text/css">
	.st0{fill:#FFFFFF;}
</style>
<g>
	<path class="st0" d="M23.32,24.62l-6.84-11.53c-0.25-0.42-0.7-0.67-1.19-0.68h0c-0.49,0-0.94,0.26-1.18,0.67L7.24,24.63
		c-0.87,1.43-1.3,2.98-1.3,4.75c0,5.15,4.19,9.34,9.34,9.34s9.34-4.19,9.34-9.34C24.63,27.6,24.2,26.04,23.32,24.62z M15.28,35.97
		c-3.63,0-6.59-2.95-6.59-6.58c0-1.27,0.28-2.32,0.9-3.32c0,0,0.01-0.01,0.01-0.02l5.69-9.56l5.66,9.55
		c0.01,0.01,0.01,0.02,0.02,0.02c0.62,1,0.9,2.02,0.9,3.32C21.87,33.01,18.91,35.97,15.28,35.97z"/>
	<path class="st0" d="M60.46,24.62l-6.84-11.53c-0.25-0.42-0.7-0.67-1.18-0.68h0c-0.49,0-0.94,0.26-1.19,0.67l-6.88,11.55
		c-0.87,1.43-1.3,2.98-1.3,4.75c0,5.15,4.19,9.34,9.34,9.34c5.15,0,9.34-4.19,9.34-9.34C61.76,27.59,61.34,26.04,60.46,24.62z
		 M52.42,35.97c-3.63,0-6.59-2.95-6.59-6.58c0-1.27,0.28-2.32,0.9-3.32c0,0,0.01-0.01,0.01-0.02l5.69-9.56l5.66,9.55
		c0.01,0.01,0.01,0.02,0.02,0.02c0.62,1,0.9,2.02,0.9,3.32C59,33.01,56.05,35.97,52.42,35.97z"/>
	<path class="st0" d="M35.05,32.29c-0.25-0.42-0.7-0.68-1.18-0.68h0c-0.48,0-0.94,0.26-1.18,0.67l-6.88,11.54
		c-0.87,1.43-1.3,2.98-1.3,4.75c0,5.15,4.19,9.34,9.34,9.34s9.34-4.19,9.34-9.34c0-1.79-0.43-3.34-1.3-4.76L35.05,32.29z
		 M33.85,55.18c-3.63,0-6.59-2.95-6.59-6.58c0-1.27,0.28-2.32,0.9-3.32c0,0,0.01-0.01,0.01-0.02l5.69-9.56l5.66,9.55
		c0,0.01,0.01,0.02,0.01,0.02c0.62,1,0.9,2.03,0.9,3.32C40.44,52.22,37.48,55.18,33.85,55.18z"/>
</g>
</svg>
