<?xml version="1.0" encoding="utf-8"?>
<!-- Generator: Adobe Illustrator 24.0.1, SVG Export Plug-In . SVG Version: 6.00 Build 0)  -->
<svg version="1.1" id="Layer_1" xmlns="http://www.w3.org/2000/svg" xmlns:xlink="http://www.w3.org/1999/xlink" x="0px" y="0px"
	 viewBox="0 0 68 70" style="enable-background:new 0 0 68 70;" xml:space="preserve">
<style type="text/css">
	.st0{fill:#FFFFFF;}
</style>
<path class="st0" d="M59.76,48.54l-7.27-4.19l6.38-1.71c0.73-0.2,1.17-0.95,0.98-1.69c-0.2-0.74-0.95-1.17-1.69-0.97l-9.04,2.42
	l-12.51-7.22l12.61-7.28l9.04,2.42c0.12,0.03,0.24,0.05,0.36,0.05c0.61,0,1.17-0.41,1.33-1.02c0.2-0.74-0.24-1.49-0.98-1.69
	l-6.38-1.71l7.17-4.14c0.66-0.38,0.89-1.22,0.51-1.88c-0.38-0.66-1.22-0.89-1.88-0.51l-7.27,4.19l1.71-6.38
	c0.2-0.74-0.24-1.49-0.98-1.69s-1.49,0.24-1.69,0.98l-2.42,9.04l-12.51,7.22V18.22l6.62-6.62c0.54-0.54,0.54-1.41,0-1.95
	c-0.54-0.54-1.41-0.54-1.95,0l-4.67,4.67V6.05c0-0.76-0.62-1.38-1.38-1.38s-1.38,0.62-1.38,1.38v8.39L27.8,9.77
	c-0.54-0.54-1.41-0.54-1.95,0c-0.54,0.54-0.54,1.41,0,1.95l6.62,6.62v14.45L19.86,25.5l-2.42-9.04c-0.2-0.74-0.95-1.17-1.69-0.98
	c-0.74,0.2-1.17,0.95-0.98,1.69l1.71,6.38l-7.17-4.14c-0.66-0.38-1.5-0.15-1.88,0.51c-0.38,0.66-0.15,1.5,0.51,1.88L15.2,26
	l-6.38,1.71c-0.73,0.2-1.17,0.95-0.98,1.69c0.17,0.62,0.72,1.02,1.33,1.02c0.12,0,0.24-0.01,0.36-0.05l9.04-2.42l12.51,7.22
	l-12.61,7.28l-9.04-2.42c-0.74-0.2-1.49,0.24-1.69,0.97c-0.2,0.74,0.24,1.49,0.98,1.69l6.38,1.71l-7.17,4.14
	c-0.66,0.38-0.89,1.22-0.51,1.88c0.26,0.44,0.72,0.69,1.2,0.69c0.23,0,0.47-0.06,0.69-0.18l7.27-4.19l-1.71,6.38
	c-0.2,0.74,0.24,1.49,0.98,1.69c0.12,0.03,0.24,0.05,0.36,0.05c0.61,0,1.17-0.41,1.33-1.02l2.42-9.04l12.51-7.22v14.56l-6.62,6.62
	c-0.54,0.54-0.54,1.41,0,1.95c0.27,0.27,0.62,0.4,0.98,0.4c0.35,0,0.71-0.14,0.98-0.4l4.67-4.67v8.28c0,0.76,0.62,1.38,1.38,1.38
	s1.38-0.62,1.38-1.38V55.9l4.67,4.67c0.54,0.54,1.41,0.54,1.95,0c0.54-0.54,0.54-1.41,0-1.95L35.23,52V37.56l12.61,7.28l2.42,9.04
	c0.17,0.62,0.72,1.02,1.33,1.02c0.12,0,0.24-0.01,0.36-0.05c0.74-0.2,1.17-0.95,0.98-1.69l-1.71-6.38l7.17,4.14
	c0.22,0.13,0.45,0.18,0.69,0.18c0.48,0,0.94-0.25,1.2-0.69C60.65,49.76,60.42,48.92,59.76,48.54z"/>
</svg>
