<?xml version="1.0" encoding="utf-8"?>
<!-- Generator: Adobe Illustrator 24.0.1, SVG Export Plug-In . SVG Version: 6.00 Build 0)  -->
<svg version="1.1" id="Layer_1" xmlns="http://www.w3.org/2000/svg" xmlns:xlink="http://www.w3.org/1999/xlink" x="0px" y="0px"
	 viewBox="0 0 40 60" style="enable-background:new 0 0 40 60;" xml:space="preserve">
<style type="text/css">
	.st0{fill:#FFFFFF;}
</style>
<g>
	<path class="st0" d="M14.8,15c0-1.3-0.3-2.4-1-3.5L8.6,2.6C8.5,2.4,8.3,2.3,8,2.3l0,0c-0.2,0-0.5,0.1-0.6,0.3l-5.3,8.9
		c-0.6,1-1,2.2-1,3.5c0,3.7,2.9,6.7,6.6,6.8c0,0,0.1,0,0.1,0c0,0,0.1,0,0.1,0l0,0l0,0c0.1,0,0.1,0,0.2,0
		C11.9,21.7,14.8,18.7,14.8,15z M2.6,15c0-1.1,0.2-1.9,0.8-2.8L8,4.3l4.7,7.9c0,0,0,0,0,0c0.5,0.8,0.7,1.7,0.7,2.8
		c0,1.4-0.5,2.6-1.3,3.6c0.1-0.3,0.1-0.6,0.1-1c0-0.8-0.2-1.5-0.6-2.2l-3-5.1C8.5,10.1,8.3,10,8,10l0,0c-0.2,0-0.5,0.1-0.6,0.3
		l-3,5.1c-0.4,0.6-0.6,1.4-0.6,2.2c0,0.3,0,0.7,0.1,1C3.1,17.6,2.6,16.3,2.6,15z M8,20.4c-1.6,0-2.8-1.3-2.8-2.8
		c0-0.5,0.1-1,0.4-1.4L8,12l2.4,4.1c0,0,0,0,0,0c0.3,0.4,0.4,0.9,0.4,1.4C10.9,19.2,9.6,20.4,8,20.4L8,20.4z"/>
	<path class="st0" d="M25.8,39.2V8.7c0-0.4-0.3-0.7-0.7-0.7c-0.4,0-0.7,0.3-0.7,0.7v30.5c-3.4,0.3-6,3.2-6,6.7c0,3.7,3,6.7,6.7,6.7
		c3.7,0,6.7-3,6.7-6.7C31.8,42.4,29.1,39.6,25.8,39.2z M25.1,51.3c-3,0-5.4-2.4-5.4-5.4c0-3,2.4-5.4,5.4-5.4s5.4,2.4,5.4,5.4
		C30.4,48.9,28,51.3,25.1,51.3z"/>
	<path class="st0" d="M31.7,35.8V3.2c0-0.8-0.6-1.4-1.4-1.4H19.8c-0.8,0-1.4,0.6-1.4,1.4v32.6c-3.4,2.2-5.5,6.1-5.5,10.2
		c0,6.7,5.5,12.2,12.2,12.2s12.2-5.5,12.2-12.2C37.2,41.8,35.1,38,31.7,35.8z M25.1,55.3c-5.2,0-9.4-4.2-9.4-9.4
		c0-3.4,1.8-6.5,4.8-8.2c0.4-0.2,0.7-0.7,0.7-1.2v-32H29v32c0,0.5,0.3,1,0.7,1.2c3,1.7,4.8,4.8,4.8,8.2
		C34.5,51.1,30.3,55.3,25.1,55.3z"/>
	<path class="st0" d="M36.8,32.9h-2.9c-0.4,0-0.7,0.3-0.7,0.7c0,0.4,0.3,0.7,0.7,0.7h2.9c0.4,0,0.7-0.3,0.7-0.7
		C37.5,33.2,37.2,32.9,36.8,32.9z"/>
	<path class="st0" d="M36.8,26.7h-2.9c-0.4,0-0.7,0.3-0.7,0.7s0.3,0.7,0.7,0.7h2.9c0.4,0,0.7-0.3,0.7-0.7S37.2,26.7,36.8,26.7z"/>
	<path class="st0" d="M36.8,20.4h-2.9c-0.4,0-0.7,0.3-0.7,0.7s0.3,0.7,0.7,0.7h2.9c0.4,0,0.7-0.3,0.7-0.7S37.2,20.4,36.8,20.4z"/>
	<path class="st0" d="M36.8,14.2h-2.9c-0.4,0-0.7,0.3-0.7,0.7s0.3,0.7,0.7,0.7h2.9c0.4,0,0.7-0.3,0.7-0.7S37.2,14.2,36.8,14.2z"/>
	<path class="st0" d="M33.9,9.4h2.9c0.4,0,0.7-0.3,0.7-0.7S37.2,8,36.8,8h-2.9c-0.4,0-0.7,0.3-0.7,0.7S33.6,9.4,33.9,9.4z"/>
</g>
</svg>
