<?xml version="1.0" encoding="utf-8"?>
<!-- Generator: Adobe Illustrator 24.0.1, SVG Export Plug-In . SVG Version: 6.00 Build 0)  -->
<svg version="1.1" id="Layer_1" xmlns="http://www.w3.org/2000/svg" xmlns:xlink="http://www.w3.org/1999/xlink" x="0px" y="0px"
	 viewBox="0 0 40 60" style="enable-background:new 0 0 40 60;" xml:space="preserve">
<style type="text/css">
	.st0{fill:#FFFFFF;}
</style>
<g>
	<path class="st0" d="M33.6,35.8V3.2c0-0.8-0.6-1.4-1.4-1.4H21.6c-0.8,0-1.4,0.6-1.4,1.4v32.6c-3.4,2.2-5.5,6.1-5.5,10.2
		c0,6.7,5.5,12.2,12.2,12.2c6.7,0,12.2-5.5,12.2-12.2C39.1,41.8,37,38,33.6,35.8z M26.9,55.3c-5.2,0-9.4-4.2-9.4-9.4
		c0-3.4,1.8-6.5,4.8-8.2c0.4-0.2,0.7-0.7,0.7-1.2v-32h7.8v32c0,0.5,0.3,1,0.7,1.2c3,1.7,4.8,4.8,4.8,8.2
		C36.3,51.1,32.1,55.3,26.9,55.3z"/>
	<path class="st0" d="M33,45.2H20.9c-0.4,0-0.7,0.3-0.7,0.7c0,3.7,3,6.7,6.7,6.7c3.7,0,6.7-3,6.7-6.7C33.7,45.5,33.3,45.2,33,45.2z
		 M26.9,51.3c-2.7,0-5-2-5.3-4.7h10.6C31.9,49.2,29.6,51.3,26.9,51.3z"/>
	<path class="st0" d="M38.7,32.9h-2.9c-0.4,0-0.7,0.3-0.7,0.7c0,0.4,0.3,0.7,0.7,0.7h2.9c0.4,0,0.7-0.3,0.7-0.7
		C39.4,33.2,39.1,32.9,38.7,32.9z"/>
	<path class="st0" d="M38.7,26.7h-2.9c-0.4,0-0.7,0.3-0.7,0.7s0.3,0.7,0.7,0.7h2.9c0.4,0,0.7-0.3,0.7-0.7S39.1,26.7,38.7,26.7z"/>
	<path class="st0" d="M38.7,20.4h-2.9c-0.4,0-0.7,0.3-0.7,0.7s0.3,0.7,0.7,0.7h2.9c0.4,0,0.7-0.3,0.7-0.7S39.1,20.4,38.7,20.4z"/>
	<path class="st0" d="M38.7,14.2h-2.9c-0.4,0-0.7,0.3-0.7,0.7s0.3,0.7,0.7,0.7h2.9c0.4,0,0.7-0.3,0.7-0.7S39.1,14.2,38.7,14.2z"/>
	<path class="st0" d="M35.8,9.4h2.9c0.4,0,0.7-0.3,0.7-0.7S39.1,8,38.7,8h-2.9c-0.4,0-0.7,0.3-0.7,0.7S35.4,9.4,35.8,9.4z"/>
	<path class="st0" d="M15.1,15.3c0.2,0,0.5-0.1,0.6-0.3c0.2-0.3,0.1-0.8-0.3-0.9L10,10.9l5.5-3.1c0.3-0.2,0.4-0.6,0.3-0.9
		c-0.2-0.3-0.6-0.4-0.9-0.3L9.3,9.7V3.4C9.3,3,9,2.7,8.6,2.7C8.2,2.7,7.9,3,7.9,3.4v6.3L2.5,6.5C2.1,6.3,1.7,6.4,1.5,6.8
		C1.3,7.1,1.4,7.5,1.8,7.7l5.5,3.1L1.8,14c-0.3,0.2-0.4,0.6-0.3,0.9c0.1,0.2,0.4,0.3,0.6,0.3c0.1,0,0.2,0,0.3-0.1l5.5-3.1v6.3
		c0,0.4,0.3,0.7,0.7,0.7s0.7-0.3,0.7-0.7v-6.3l5.5,3.1C14.8,15.3,15,15.3,15.1,15.3z"/>
</g>
</svg>
