<?xml version="1.0" encoding="utf-8"?>
<!-- Generator: Adobe Illustrator 24.0.1, SVG Export Plug-In . SVG Version: 6.00 Build 0)  -->
<svg version="1.1" id="Layer_1" xmlns="http://www.w3.org/2000/svg" xmlns:xlink="http://www.w3.org/1999/xlink" x="0px" y="0px"
	 viewBox="0 0 40 60" style="enable-background:new 0 0 40 60;" xml:space="preserve">
<style type="text/css">
	.st0{fill:#FFFFFF;}
</style>
<g>
	<path class="st0" d="M20.9,39.2V21c0-0.4-0.3-0.7-0.7-0.7s-0.7,0.3-0.7,0.7v18.2c-3.4,0.3-6,3.2-6,6.7c0,3.7,3,6.7,6.7,6.7
		s6.7-3,6.7-6.7C26.9,42.4,24.3,39.6,20.9,39.2z M20.2,51.3c-3,0-5.4-2.4-5.4-5.4c0-3,2.4-5.4,5.4-5.4s5.4,2.4,5.4,5.4
		C25.6,48.9,23.2,51.3,20.2,51.3z"/>
	<path class="st0" d="M26.9,35.8V3.2c0-0.8-0.6-1.4-1.4-1.4H14.9c-0.8,0-1.4,0.6-1.4,1.4v32.6C10.1,38,8,41.8,8,45.9
		c0,6.7,5.5,12.2,12.2,12.2c6.7,0,12.2-5.5,12.2-12.2C32.4,41.8,30.3,38,26.9,35.8z M20.2,55.3c-5.2,0-9.4-4.2-9.4-9.4
		c0-3.4,1.8-6.5,4.8-8.2c0.4-0.2,0.7-0.7,0.7-1.2v-32h7.8v32c0,0.5,0.3,1,0.7,1.2c3,1.7,4.8,4.8,4.8,8.2
		C29.6,51.1,25.4,55.3,20.2,55.3z"/>
	<path class="st0" d="M32,32.9h-2.9c-0.4,0-0.7,0.3-0.7,0.7c0,0.4,0.3,0.7,0.7,0.7H32c0.4,0,0.7-0.3,0.7-0.7
		C32.7,33.2,32.4,32.9,32,32.9z"/>
	<path class="st0" d="M32,26.7h-2.9c-0.4,0-0.7,0.3-0.7,0.7s0.3,0.7,0.7,0.7H32c0.4,0,0.7-0.3,0.7-0.7S32.4,26.7,32,26.7z"/>
	<path class="st0" d="M32,20.4h-2.9c-0.4,0-0.7,0.3-0.7,0.7s0.3,0.7,0.7,0.7H32c0.4,0,0.7-0.3,0.7-0.7S32.4,20.4,32,20.4z"/>
	<path class="st0" d="M32,14.2h-2.9c-0.4,0-0.7,0.3-0.7,0.7s0.3,0.7,0.7,0.7H32c0.4,0,0.7-0.3,0.7-0.7S32.4,14.2,32,14.2z"/>
	<path class="st0" d="M29.1,9.4H32c0.4,0,0.7-0.3,0.7-0.7S32.4,8,32,8h-2.9c-0.4,0-0.7,0.3-0.7,0.7S28.7,9.4,29.1,9.4z"/>
</g>
</svg>
