<?xml version="1.0" encoding="utf-8"?>
<!-- Generator: Adobe Illustrator 24.0.1, SVG Export Plug-In . SVG Version: 6.00 Build 0)  -->
<svg version="1.1" id="Layer_1" xmlns="http://www.w3.org/2000/svg" xmlns:xlink="http://www.w3.org/1999/xlink" x="0px" y="0px"
	 viewBox="0 0 68 70" style="enable-background:new 0 0 68 70;" xml:space="preserve">
<style type="text/css">
	.st0{fill:#FFFFFF;}
</style>
<g>
	<path class="st0" d="M64.83,25.51c-1.7-2.09-4.08-3.56-6.7-4.14c-0.74-0.16-1.48,0.31-1.64,1.05c-0.16,0.74,0.31,1.48,1.05,1.64
		c4.18,0.92,7.21,4.7,7.21,8.98c0,5.07-4.13,9.2-9.2,9.2H19.38c-9.06,0-16.43-7.37-16.43-16.43S10.32,9.39,19.38,9.39
		c6.94,0,13.16,4.39,15.48,10.93c0.26,0.72,1.04,1.09,1.76,0.84s1.09-1.04,0.84-1.76c-2.71-7.64-9.98-12.77-18.08-12.77
		C8.8,6.63,0.2,15.24,0.2,25.82S8.8,45,19.38,45h36.31c0.02,0,0.03,0,0.05,0c6.51-0.1,11.77-5.42,11.77-11.95
		C67.51,30.31,66.56,27.63,64.83,25.51z"/>
	<path class="st0" d="M35.91,10.6c1.56-0.81,3.25-1.21,5.02-1.21c6.04,0,10.96,4.92,10.96,10.96c0,2.96-1.17,5.74-3.28,7.82
		c-0.54,0.53-0.55,1.41-0.02,1.95c0.27,0.27,0.63,0.41,0.98,0.41c0.35,0,0.7-0.13,0.97-0.4c2.65-2.6,4.11-6.08,4.11-9.79
		c0-7.57-6.15-13.72-13.72-13.72c-2.18,0-4.36,0.53-6.29,1.52c-0.68,0.35-0.94,1.18-0.59,1.86S35.23,10.95,35.91,10.6z"/>
	<path class="st0" d="M17.98,47.84l-5.3,5.3c-0.27,0.27-0.27,0.7,0,0.98c0.14,0.14,0.31,0.2,0.49,0.2s0.35-0.07,0.49-0.2l5.3-5.3
		c0.27-0.27,0.27-0.7,0-0.98S18.25,47.57,17.98,47.84z"/>
	<path class="st0" d="M27.27,47.84l-5.3,5.3c-0.27,0.27-0.27,0.7,0,0.98c0.13,0.14,0.31,0.2,0.49,0.2s0.35-0.07,0.49-0.2l5.3-5.3
		c0.27-0.27,0.27-0.7,0-0.98S27.54,47.57,27.27,47.84z"/>
	<path class="st0" d="M47.24,47.84l-5.3,5.3c-0.27,0.27-0.27,0.7,0,0.98c0.14,0.14,0.31,0.2,0.49,0.2s0.35-0.07,0.49-0.2l5.3-5.3
		c0.27-0.27,0.27-0.7,0-0.98S47.51,47.57,47.24,47.84z"/>
	<path class="st0" d="M56.54,47.84l-5.3,5.3c-0.27,0.27-0.27,0.7,0,0.98c0.14,0.14,0.31,0.2,0.49,0.2s0.35-0.07,0.49-0.2l5.3-5.3
		c0.27-0.27,0.27-0.7,0-0.98C57.24,47.57,56.81,47.57,56.54,47.84z"/>
	<path class="st0" d="M17.98,57.24l-5.3,5.3c-0.27,0.27-0.27,0.71,0,0.98c0.14,0.14,0.31,0.2,0.49,0.2s0.35-0.07,0.49-0.2l5.3-5.3
		c0.27-0.27,0.27-0.71,0-0.98C18.68,56.97,18.25,56.97,17.98,57.24z"/>
	<path class="st0" d="M27.27,57.24l-5.3,5.3c-0.27,0.27-0.27,0.71,0,0.98c0.13,0.14,0.31,0.2,0.49,0.2s0.35-0.07,0.49-0.2l5.3-5.3
		c0.27-0.27,0.27-0.71,0-0.98C27.98,56.97,27.54,56.97,27.27,57.24z"/>
	<path class="st0" d="M47.24,57.24l-5.3,5.3c-0.27,0.27-0.27,0.71,0,0.98c0.14,0.14,0.31,0.2,0.49,0.2s0.35-0.07,0.49-0.2l5.3-5.3
		c0.27-0.27,0.27-0.71,0-0.98C47.95,56.97,47.51,56.97,47.24,57.24z"/>
	<path class="st0" d="M56.54,57.24l-5.3,5.3c-0.27,0.27-0.27,0.71,0,0.98c0.14,0.14,0.31,0.2,0.49,0.2s0.35-0.07,0.49-0.2l5.3-5.3
		c0.27-0.27,0.27-0.71,0-0.98C57.24,56.97,56.81,56.97,56.54,57.24z"/>
	<path class="st0" d="M40.34,54.54l-4.37-1.13v-5.18c0-0.31-0.2-0.58-0.5-0.66c-0.29-0.08-0.61,0.03-0.77,0.29l-4.89,7.65
		c-0.12,0.19-0.14,0.42-0.06,0.62s0.26,0.36,0.47,0.42l4.37,1.13v5.18c0,0.31,0.2,0.58,0.5,0.66c0.06,0.02,0.13,0.03,0.19,0.03
		c0.23,0,0.45-0.12,0.58-0.32l4.89-7.65c0.12-0.19,0.14-0.42,0.06-0.62C40.73,54.75,40.55,54.6,40.34,54.54z M35.97,60.5v-3.35
		c0-0.31-0.21-0.59-0.52-0.67l-3.97-1.02l3.1-4.86v3.35c0,0.31,0.21,0.59,0.52,0.67l3.97,1.02L35.97,60.5z"/>
</g>
</svg>
