<?xml version="1.0" encoding="utf-8"?>
<!-- Generator: Adobe Illustrator 24.0.1, SVG Export Plug-In . SVG Version: 6.00 Build 0)  -->
<svg version="1.1" id="Layer_1" xmlns="http://www.w3.org/2000/svg" xmlns:xlink="http://www.w3.org/1999/xlink" x="0px" y="0px"
	 viewBox="0 0 68 70" style="enable-background:new 0 0 68 70;" xml:space="preserve">
<style type="text/css">
	.st0{fill:#FFFFFF;}
</style>
<g>
	<path class="st0" d="M56.22,11.43c-0.8-0.81-1.76-1.25-2.76-1.27l-26.1-1.72c-0.76-0.05-1.42,0.52-1.47,1.29
		c-0.05,0.76,0.52,1.42,1.29,1.47l26.14,1.72c0.03,0,0.06,0,0.09,0c0.27,0,0.56,0.15,0.86,0.45c0.91,0.92,1.48,2.81,1.47,4.83
		c-0.02,3.22-1.44,5.27-2.41,5.27c0,0,0,0,0,0c-0.03,0-0.06,0-0.09,0l-26.04,1.63c-0.76,0.05-1.34,0.7-1.29,1.46
		c0.05,0.73,0.65,1.29,1.38,1.29c0.03,0,0.06,0,0.09,0l26.01-1.63c1.5-0.02,2.85-0.95,3.82-2.63c0.83-1.46,1.3-3.36,1.31-5.38
		C58.51,15.42,57.66,12.88,56.22,11.43z"/>
	<path class="st0" d="M20.65,7.98c-1.34,0-2.55,0.72-3.51,1.97l-7.71,7.71c-0.17,0.17-0.23,0.41-0.19,0.63
		c-0.01,0.05-0.02,0.1-0.02,0.15v43.24c0,0.38,0.31,0.69,0.69,0.69s0.69-0.31,0.69-0.69V19.81l6.53,6.53
		c0.96,1.24,2.17,1.97,3.51,1.97c3.3,0,5.79-4.37,5.79-10.17S23.95,7.98,20.65,7.98z M10.89,18.14l4.53-4.53
		c-0.36,1.35-0.57,2.88-0.57,4.53s0.2,3.18,0.57,4.53L10.89,18.14z M20.65,25.55c-1.24,0-3.03-2.89-3.03-7.41s1.8-7.41,3.03-7.41
		c1.24,0,3.03,2.89,3.03,7.41S21.88,25.55,20.65,25.55z"/>
	<path class="st0" d="M31,22.48c-0.38,0-0.69,0.31-0.69,0.69c0,0.38,0.31,0.69,0.69,0.69c1.75,0,3.06-2.48,3.06-5.77
		s-1.32-5.77-3.06-5.77c-0.38,0-0.69,0.31-0.69,0.69S30.62,13.7,31,13.7c0.69,0,1.68,1.71,1.68,4.39
		C32.68,20.77,31.69,22.48,31,22.48z"/>
	<path class="st0" d="M37.96,21.9c-0.38,0-0.69,0.31-0.69,0.69s0.31,0.69,0.69,0.69c1.76,0,2.68-2.61,2.68-5.19
		s-0.92-5.19-2.68-5.19c-0.38,0-0.69,0.31-0.69,0.69s0.31,0.69,0.69,0.69c0.46,0,1.3,1.45,1.3,3.81S38.42,21.9,37.96,21.9z"/>
	<path class="st0" d="M43.82,21.6c-0.38,0-0.69,0.31-0.69,0.69s0.31,0.69,0.69,0.69c1.69,0,2.57-2.46,2.57-4.89
		c0-2.43-0.88-4.89-2.57-4.89c-0.38,0-0.69,0.31-0.69,0.69s0.31,0.69,0.69,0.69c0.42,0,1.19,1.33,1.19,3.51S44.24,21.6,43.82,21.6z"
		/>
	<path class="st0" d="M49.54,21.14c-0.38,0-0.69,0.31-0.69,0.69s0.31,0.69,0.69,0.69c1.43,0,2.5-1.9,2.5-4.43
		c0-2.52-1.08-4.43-2.5-4.43c-0.38,0-0.69,0.31-0.69,0.69s0.31,0.69,0.69,0.69c0.4,0,1.12,1.16,1.12,3.05
		C50.67,19.98,49.94,21.14,49.54,21.14z"/>
</g>
</svg>
